<?xml version="1.0" encoding="utf-8"?>
<!-- Generator: Adobe Illustrator 17.1.0, SVG Export Plug-In . SVG Version: 6.00 Build 0)  -->
<!DOCTYPE svg PUBLIC "-//W3C//DTD SVG 1.1//EN" "http://www.w3.org/Graphics/SVG/1.1/DTD/svg11.dtd">
<svg version="1.1" id="Layer_1" xmlns="http://www.w3.org/2000/svg" xmlns:xlink="http://www.w3.org/1999/xlink" x="0px" y="0px"
	 viewBox="0 0 145.9 83" enable-background="new 0 0 145.9 83" xml:space="preserve">
<g>
	<g>
		<path fill="#FFFFFF" d="M117.8,83.5H30c-5,0-9.2-4.2-9.2-9.2V10.2C20.8,5.2,25,1,30,1h87.8c5,0,9.2,4.2,9.2,9.2v64.1
			C126.9,79.3,122.8,83.5,117.8,83.5z M30,4.8c-3,0-5,2.5-5,5v64.1c0,3,2.5,5,5,5h87.8c3,0,5-2.5,5-5V10.2c0-3-2.5-5-5-5L30,4.8
			L30,4.8z"/>
		<rect x="23" y="58.4" fill="#FFFFFF" width="101.9" height="3.8"/>
		<rect x="72" y="60.5" fill="#FFFFFF" width="3.8" height="21"/>
		<rect x="40.6" y="3" fill="#FFFFFF" width="3.8" height="57.4"/>
		<rect x="60.3" y="3" fill="#FFFFFF" width="3.8" height="57.4"/>
		<rect x="81.2" y="3" fill="#FFFFFF" width="3.8" height="57.4"/>
		<rect x="103.1" y="3" fill="#FFFFFF" width="3.8" height="57.4"/>
		<rect x="42.3" y="29.8" fill="#FFFFFF" width="19.7" height="3.8"/>
		<rect x="83.8" y="29.8" fill="#FFFFFF" width="19.7" height="3.8"/>
	</g>
</g>
</svg>
