<?xml version="1.0" encoding="utf-8"?>
<!-- Generator: Adobe Illustrator 15.0.0, SVG Export Plug-In . SVG Version: 6.00 Build 0)  -->
<!DOCTYPE svg PUBLIC "-//W3C//DTD SVG 1.1//EN" "http://www.w3.org/Graphics/SVG/1.1/DTD/svg11.dtd">
<svg version="1.1" id="Layer_1" xmlns="http://www.w3.org/2000/svg" xmlns:xlink="http://www.w3.org/1999/xlink" x="0px" y="0px"
	 width="68.06px" height="68.06px" viewBox="0 0 68.06 68.06" enable-background="new 0 0 68.06 68.06" xml:space="preserve">
<path id="facebook" fill="#14DDB3" d="M64.18,0H3.89C1.75,0,0,1.75,0,3.89v60.29c0,2.14,1.75,3.89,3.89,3.89h60.29
	c2.13,0,3.89-1.75,3.89-3.89V3.89C68.06,1.75,66.31,0,64.18,0z M57.77,38.18h-9.35V63.2h-9.53V38.18h-6.62v-9h6.62c0,0,0-3.69,0-7.7
	c0-6.05,3.91-11.6,12.92-11.6c3.63,0,6.34,0.35,6.34,0.35l-0.22,8.41c0,0-2.74-0.02-5.75-0.02c-3.25,0-3.76,1.5-3.76,3.98
	c0,0.3,0,0.41,0,0.42c0,0.7,0,2.38,0,6.16h9.77L57.77,38.18z"/>
</svg>
