<?xml version="1.0" encoding="utf-8"?>
<!-- Generator: Adobe Illustrator 15.0.0, SVG Export Plug-In . SVG Version: 6.00 Build 0)  -->
<!DOCTYPE svg PUBLIC "-//W3C//DTD SVG 1.1//EN" "http://www.w3.org/Graphics/SVG/1.1/DTD/svg11.dtd">
<svg version="1.1" id="Layer_1" xmlns="http://www.w3.org/2000/svg" xmlns:xlink="http://www.w3.org/1999/xlink" x="0px" y="0px"
	 width="158.48px" height="54.31px" viewBox="0 0 158.48 54.31" enable-background="new 0 0 158.48 54.31" xml:space="preserve">
<path fill="none" stroke="#F38268" stroke-width="1.5" stroke-miterlimit="10" d="M157.47,4.57c-0.03-0.5-0.27-0.82-0.76-0.94
	c-0.34-0.09-0.68-0.19-1.02-0.24c-4.89-0.77-9.79-1.52-14.73-1.86c-3.95-0.27-7.9-0.45-11.85-0.62c-7.61-0.34-15.21-0.18-22.78,0.78
	c-4.63,0.59-9.21,1.43-13.65,2.86c-2.25,0.73-4.46,1.57-6.71,2.29c-3.51,1.11-7.12,1.61-10.76,0.93c-2.19-0.41-4.35-1.04-6.48-1.73
	c-3.85-1.25-7.69-2.47-11.68-3.21C49.3,1.41,41.48,0.75,34.19,0.83C28.25,0.84,22.91,1.04,17.6,1.68C13.25,2.2,8.89,2.79,4.54,3.38
	C3.62,3.5,2.71,3.77,1.81,4.01C1.33,4.14,1,4.46,0.99,5c-0.08,2.57-0.17,5.14-0.24,7.71c-0.01,0.39,0.09,0.78,0.14,1.17
	c0.05,0.33,0.23,0.55,0.54,0.69c0.33,0.15,0.67,0.29,0.97,0.5c1.43,1,2.12,2.5,2.67,4.06c0.39,1.12,0.64,2.28,0.97,3.43
	c0.2,0.71,0.46,1.4,0.63,2.12c0.75,3.35,1.46,6.72,2.23,10.08c0.74,3.2,1.7,6.32,3.22,9.25c1.71,3.26,4.14,5.77,7.6,7.21
	c2.09,0.87,4.27,1.43,6.5,1.78c4,0.63,8.02,0.71,12.05,0.42c4.08-0.3,8.11-0.91,12.04-2.1c2.92-0.88,5.67-2.11,8.01-4.1
	c3.57-3.04,6.45-6.66,8.66-10.81c2.21-4.14,3.75-8.55,5.14-13.01c0.4-1.28,0.78-2.57,1.24-3.83c0.69-1.85,2.01-3,3.99-3.3
	c0.63-0.1,1.28-0.13,1.92-0.09c1.48,0.09,2.91,0.4,3.9,1.64c0.43,0.54,0.83,1.14,1.11,1.77c0.54,1.22,1.05,2.47,1.46,3.75
	c1.74,5.52,4.05,10.77,6.98,15.77c2.42,4.15,5.62,7.5,9.86,9.81c3,1.64,6.21,2.68,9.55,3.33c5.03,0.98,10.1,1.21,15.2,0.99
	c3.08-0.13,6.13-0.52,9.1-1.42c3.04-0.91,5.72-2.39,7.72-4.93c1.29-1.64,2.25-3.47,3.04-5.39c1.67-4.05,2.74-8.28,3.7-12.54
	c0.47-2.09,0.96-4.16,1.47-6.24c0.27-1.09,0.6-2.15,0.9-3.23c0.28-1.01,0.52-2.03,1.16-2.9c0.64-0.88,1.3-1.73,2.37-2.11
	c0.47-0.17,0.71-0.49,0.8-0.93c0.08-0.34,0.16-0.69,0.16-1.03c0-1.54,0-3.08-0.04-4.61C157.66,6.77,157.54,5.67,157.47,4.57
	 M7.32,9.44c-1.66,0-3.01-0.33-3.01-0.74c0-0.41,1.35-0.74,3.01-0.74c1.66,0,3.01,0.33,3.01,0.74C10.32,9.11,8.98,9.44,7.32,9.44
	 M65.45,25.7c-1.06,4.49-2.79,8.69-5.12,12.67c-1.27,2.17-2.71,4.21-4.54,5.95c-2.41,2.3-5.32,3.66-8.51,4.5
	c-6.46,1.69-12.99,2.11-19.59,1.12c-1.29-0.19-2.57-0.53-3.84-0.85c-2.62-0.68-4.61-2.2-6.12-4.45c-1.67-2.49-2.7-5.23-3.39-8.12
	c-0.9-3.77-1.4-7.62-1.78-11.47c-0.22-2.24-0.18-4.47,0.1-6.69c0.14-1.12,0.23-2.26,0.48-3.35c0.9-3.9,3.31-6.38,7.18-7.4
	c3.54-0.93,7.15-1.48,10.79-1.77c2.7-0.22,5.41-0.33,7.16-0.43c6.22,0.08,11.44,0.47,16.57,1.66c2.1,0.48,4.22,0.91,6.14,1.93
	c0.94,0.5,1.86,1.1,2.68,1.78c1.36,1.12,2.05,2.65,2.35,4.38C66.61,18.7,66.27,22.21,65.45,25.7 M145.89,24.03
	c-0.14,5.42-1.05,10.71-2.98,15.79c-0.78,2.06-1.84,3.96-3.44,5.51c-1.78,1.72-3.99,2.64-6.34,3.28c-2.96,0.8-5.98,0.99-9.02,1.02
	c-4.59,0.04-9.12-0.53-13.6-1.49c-4.45-0.94-7.99-3.27-10.81-6.8c-3.62-4.52-5.93-9.65-7.23-15.26c-0.6-2.59-1.1-5.2-1.04-7.88
	c0.03-1.15,0.15-2.32,0.36-3.45c0.52-2.83,2.25-4.68,4.87-5.74c2.63-1.06,5.38-1.71,8.15-2.26c3.09-0.61,6.2-1.07,9.34-1.27
	c2.45-0.16,4.91-0.23,6.57-0.3c6.58,0.32,12.33,0.81,17.92,2.4c1.03,0.3,2.01,0.77,2.98,1.22c0.92,0.43,1.63,1.13,2.09,2.05
	c0.51,1.01,1.02,2.02,1.42,3.08c0.47,1.23,0.57,2.56,0.62,3.86C145.84,19.87,145.94,21.95,145.89,24.03 M151.08,9.44
	c-1.66,0-3.01-0.33-3.01-0.74c0-0.41,1.35-0.74,3.01-0.74c1.66,0,3.01,0.33,3.01,0.74C154.08,9.11,152.74,9.44,151.08,9.44"/>
</svg>
