<?xml version="1.0" encoding="utf-8"?>
<!-- Generator: Adobe Illustrator 15.0.0, SVG Export Plug-In . SVG Version: 6.00 Build 0)  -->
<!DOCTYPE svg PUBLIC "-//W3C//DTD SVG 1.1//EN" "http://www.w3.org/Graphics/SVG/1.1/DTD/svg11.dtd">
<svg version="1.1" id="Layer_1" xmlns="http://www.w3.org/2000/svg" xmlns:xlink="http://www.w3.org/1999/xlink" x="0px" y="0px"
	 width="128.9px" height="128.9px" viewBox="0 0 128.9 128.9" enable-background="new 0 0 128.9 128.9" xml:space="preserve">
<path fill="none" stroke="#F38268" stroke-width="1.5" stroke-miterlimit="10" d="M19.38,19.38C31.79,6.96,46.82,0.75,64.45,0.75
	s32.65,6.21,45.08,18.63c12.41,12.42,18.63,27.44,18.63,45.07c0,17.63-6.21,32.66-18.63,45.08c-12.42,12.41-27.44,18.63-45.08,18.63
	s-32.66-6.21-45.08-18.63C6.96,97.11,0.75,82.08,0.75,64.45C0.75,46.82,6.96,31.8,19.38,19.38z M23.37,105.54
	c2.82,2.82,6.54,5.64,11.18,8.46c-0.2-0.2-0.6-0.5-1.21-0.9l-2.11-2.12c-0.41-0.4-0.81-1.11-1.21-2.12c-0.41-1.01-0.6-1.61-0.6-1.81
	v-0.3c0-0.2-0.05-0.5-0.15-0.91c-0.1-0.4-0.15-0.7-0.15-0.91c0-0.4-0.1-0.91-0.3-1.51c-0.2-0.6-0.3-1.11-0.3-1.51v-0.3
	c-0.2-0.2-0.3-0.5-0.3-0.91v-0.61l-0.3-0.6c0-0.4,0.05-0.8,0.15-1.21c0.1-0.4,0.15-0.8,0.15-1.21v-0.91c0-0.2,0.05-0.55,0.15-1.06
	c0.1-0.5,0.15-0.95,0.15-1.36v-0.6c-0.2-0.2-0.3-0.61-0.3-1.21v-1.51c0-1,0.1-1.71,0.3-2.11c0-0.2,0.05-0.3,0.15-0.3
	c0.1,0,0.15-0.1,0.15-0.3V86.2c0-0.4,0.1-0.91,0.3-1.51c0.2-0.61,0.3-1.1,0.3-1.51v-0.3l-0.91-0.91c-0.41-0.4-0.6-1.11-0.6-2.11
	c0-0.8,0.1-1.41,0.3-1.81v-0.3h-0.3c-1.61-1.21-2.72-2.21-3.32-3.02c-0.41-0.8-0.81-1.41-1.21-1.81L22.46,72
	c-0.41-0.4-0.6-0.8-0.6-1.21c-0.2-0.4-0.3-1.01-0.3-1.81v-0.61c-0.2-0.4-0.3-1-0.3-1.81v-2.42c0-0.4,0.2-1,0.6-1.81l0.6-0.6
	c0.2-0.2,0.45-0.55,0.76-1.06c0.3-0.5,0.55-0.85,0.75-1.06l0.91-1.81c0.4-0.4,0.6-0.8,0.6-1.21c0.2-0.4,0.3-1,0.3-1.81v-0.91
	c0-0.6-0.3-1-0.91-1.21l-0.3-0.3c-0.2,0-0.5-0.15-0.91-0.45c-0.41-0.3-0.71-0.55-0.91-0.76v-0.3c0-0.4-0.1-0.85-0.3-1.36
	c-0.2-0.5-0.41-0.95-0.6-1.36l-0.3-0.9c-0.2-0.2-0.45-0.4-0.76-0.6c-0.3-0.2-0.56-0.4-0.75-0.6v-0.61v-0.9l0.3-0.6v-0.6h-0.3
	c-0.6-0.2-1.51-0.7-2.72-1.51c-0.6-0.2-1.01-0.6-1.21-1.21l-0.6-0.61c0-0.2-0.1-0.4-0.3-0.6c-0.2-0.4-0.3-0.91-0.3-1.51
	c0-0.4,0.1-0.91,0.3-1.51c0.2-0.6,0.3-1.1,0.3-1.51v-0.6h-0.3v-0.3c-5.84,9.27-8.76,19.44-8.76,30.51
	C6.45,80.57,12.08,94.26,23.37,105.54z M118.53,46.63c0,0.2,0.1,0.3,0.3,0.3v-0.3c0-1.01-0.1-1.71-0.3-2.11
	c-0.2-0.4-0.5-0.8-0.91-1.21c-2.02,1.21-4.73-0.2-8.16-4.23c-1.01-1.21-1.92-2.16-2.72-2.87c-0.81-0.71-1.46-1.21-1.96-1.51
	c-0.5-0.3-0.96-0.5-1.36-0.6c-0.41-0.1-0.71-0.05-0.91,0.15h-0.3c-0.2,0-0.41,0.1-0.6,0.3h-0.3v0.6v0.3c-0.2,0.41-0.3,0.71-0.3,0.91
	c0,0.2-0.05,0.6-0.15,1.21c-0.1,0.6-0.15,1.01-0.15,1.21v0.3h-0.3c-0.41,0-0.91,0.1-1.51,0.3c-0.6,0.2-1.01,0.3-1.21,0.3h-1.81
	c-0.41-0.2-0.81-0.5-1.21-0.91c-0.6-0.6-1.01-1.1-1.21-1.51c-0.2-0.4-0.5-0.9-0.9-1.51c-0.41-0.61-0.71-1.1-0.91-1.51v-0.3
	c0.4-0.2,0.8-0.5,1.21-0.91h0.3c0.2,0,0.4-0.05,0.6-0.15c0.2-0.1,0.4-0.15,0.6-0.15c0.2,0,0.45-0.05,0.76-0.15
	c0.3-0.1,0.55-0.15,0.75-0.15h0.91c0.2-0.2,0.55-0.4,1.06-0.6c0.5-0.2,0.85-0.4,1.06-0.6v-0.3c0.2-0.2,0.45-0.5,0.76-0.91
	c0.3-0.4,0.55-0.7,0.75-0.91l0.3-0.3l-0.3-0.3l-0.6-1.21v-0.6c0-0.2,0.05-0.45,0.15-0.76c0.1-0.3,0.15-0.55,0.15-0.75v-0.6
	c-0.41,0-0.91-0.05-1.51-0.15c-0.6-0.1-1.01-0.15-1.21-0.15c-0.2-0.2-0.45-0.55-0.75-1.06c-0.3-0.5-0.45-0.85-0.45-1.06h-0.3
	c-0.2,0-0.45-0.05-0.75-0.15c-0.3-0.1-0.56-0.15-0.76-0.15h-0.3c-0.41-0.4-0.6-0.7-0.6-0.91c-0.4-0.8-0.6-1.31-0.6-1.51v-3.63
	c0.4,0,0.91-0.05,1.51-0.15c0.6-0.1,1.1-0.15,1.51-0.15c-5.84-3.62-11.68-6.14-17.52-7.55v0.3c-0.2,0.41-0.5,0.91-0.91,1.51
	c-0.41,0.6-0.71,1.11-0.91,1.51l-0.6,0.6c-0.2,0-0.5,0.05-0.91,0.15c-0.41,0.1-0.71,0.15-0.91,0.15c-0.41,0-0.71,0.1-0.91,0.3v0.3
	c-0.2,0.2-0.5,0.56-0.91,1.06c-0.41,0.5-0.71,0.86-0.91,1.06c-1.21,1.21-2.11,2.22-2.72,3.02v0.3h-0.3v-0.3
	c-0.81-0.4-1.31-0.8-1.51-1.21c-0.41-0.4-0.81-1.01-1.21-1.81c-0.6-1.21-0.91-2.42-0.91-3.63l0.3-0.3c0-0.4,0.1-0.95,0.3-1.66
	c0.2-0.7,0.4-1.16,0.6-1.36c0-0.2,0.05-0.3,0.15-0.3c0.1,0,0.15-0.1,0.15-0.3v-0.3v-0.6h-1.81h-0.91l1.21,2.42v0.3h-0.3
	c-0.2,0.2-0.45,0.41-0.76,0.6c-0.3,0.2-0.56,0.41-0.76,0.6l-0.3,0.3l-1.51,1.51l-0.6-0.6c-0.2-0.2-0.71-0.5-1.51-0.91v-0.3H57.2
	l-0.6,0.3h-0.3l-0.3,0.3h-0.91c-0.41,0-0.71-0.2-0.91-0.6c0-0.2-0.2-0.3-0.6-0.3h-0.3l-0.6,0.3l-0.91,0.91l-0.3,0.3
	c-0.2,0.2-0.41,0.3-0.6,0.3l-0.3,0.3l-1.81,0.91v0.3c0,0.2-0.05,0.3-0.15,0.3c-0.1,0-0.15,0.1-0.15,0.3v1.81c0,0.2,0.1,0.3,0.3,0.3
	v0.6c0.2,0.41,0.5,0.6,0.91,0.6h0.6c0.2,0,0.4-0.1,0.6-0.3c0.2-0.2,0.4-0.3,0.6-0.3c0.4-0.2,0.8-0.5,1.21-0.91
	c0.6-0.6,0.91-1,0.91-1.21v-0.3h0.6h0.6c0.4,0.41,0.8,0.41,1.21,0c0.2,0,0.4-0.1,0.6-0.3l0.6-0.6c0.4-0.4,0.8-0.6,1.21-0.6
	c0.8,0,1.21,0.1,1.21,0.3v0.3l0.6,0.6l0.3,0.3l0.3,0.3l0.6,0.3c0.2,0.2,0.3,0.41,0.3,0.6l-0.3,0.3v0.3c0,0.2-0.2,0.51-0.6,0.91v0.3
	l-0.3,0.6l-0.3,0.3c0,0.2,0.1,0.3,0.3,0.3h0.3h0.3c0.2-0.2,0.4-0.3,0.6-0.3v0.3c0,0.2-0.05,0.51-0.15,0.91
	c-0.1,0.41-0.15,0.71-0.15,0.91c0,0.2-0.2,0.71-0.6,1.51c0,0.2-0.1,0.41-0.3,0.6c-0.4,0.41-0.91,0.6-1.51,0.6l-0.3-0.3
	c-0.2,0-0.41,0-0.6,0l-0.6-0.3c-0.2-0.2-0.41-0.3-0.6-0.3h-0.91h-0.3c-0.2,0-0.3,0.2-0.3,0.61l-0.3,0.3l-0.3,0.3l-0.3,0.3h-0.3
	c-0.2,0-0.45,0.05-0.76,0.15c-0.3,0.11-0.56,0.15-0.75,0.15h-2.42h-0.3c-0.2,0-0.71,0.11-1.51,0.3c-0.81,0.2-1.31,0.41-1.51,0.6
	l-0.3,0.3c-0.2,0.2-0.5,0.3-0.91,0.3c-0.41,0.4-0.81,0.6-1.21,0.6h-0.91H43l-0.3-0.3c-0.41,0.6-1.51,1.21-3.32,1.81
	s-2.92,1.21-3.32,1.81v0.3c0,0.2-0.05,0.45-0.15,0.76c-0.1,0.3-0.15,0.56-0.15,0.75c0,1.61-0.1,2.82-0.3,3.62v0.3l-0.3,0.3l-0.3,0.3
	h-0.6l-0.3-0.3c-0.2,0-0.3-0.2-0.3-0.6l-0.3-0.6c-0.2-0.4-0.3-0.91-0.3-1.51c0-0.4-0.41-1.01-1.21-1.81c-0.41-0.4-0.71-0.6-0.91-0.6
	c-0.41-0.2-1.11-0.3-2.12-0.3h-0.3l-0.3-0.3c-0.2,0-0.5,0.05-0.91,0.15c-0.41,0.1-0.71,0.15-0.91,0.15
	c-1.61,0.41-3.43,1.81-5.44,4.23v0.3c-0.41,1.21-0.6,2.02-0.6,2.42c0,0.2,0,0.5,0,0.91l0.3,0.61c0.2,0.6,0.6,0.91,1.21,0.91h1.51
	l0.3-0.3c0.2,0,0.4,0,0.6,0h0.6l0.6,0.6v1.21l-0.3,0.3c0,0.2-0.1,0.3-0.3,0.3l-0.3,0.6c-0.2,0.2-0.5,0.3-0.91,0.3
	c-0.2,0-0.3,0.3-0.3,0.91v0.6l0.3,0.3c0.2,0.2,0.4,0.3,0.6,0.3v0.6v0.3v3.02v0.6c0,0.81,0.5,1.51,1.51,2.11l0.3,0.3
	c0.2,0,0.45,0.15,0.76,0.45c0.3,0.3,0.55,0.45,0.75,0.45h1.51c0.4,0,0.91-0.3,1.51-0.91c0-0.2,0.1-0.3,0.3-0.3l0.3-0.6l0.3-0.3
	c0.4-0.4,0.8-0.6,1.21-0.6c0.4,0,0.7,0.1,0.91,0.3l0.6,0.6l0.6,0.3c0.4,0.2,0.8,0.41,1.21,0.6c0.4,0.2,0.8,0.41,1.21,0.6l0.3,0.3
	c0.6,0,1.1,0.1,1.51,0.3c1.21,0.6,2.21,1.41,3.02,2.42c0.2,0.2,0.4,0.3,0.6,0.3c2.01,0.6,3.93,1.81,5.74,3.62
	c0.6,0.6,1.31,1.71,2.11,3.32c0,0.2,0,0.41,0,0.6l0.3,0.6l0.3,0.3c0.6,0.6,1.01,1.11,1.21,1.51c0.2,0.2,0.45,0.56,0.76,1.06
	c0.3,0.5,0.45,0.86,0.45,1.06c0.6,0.2,1.01,0.3,1.21,0.3c1.61,0.41,3.02,1.01,4.23,1.81c0.4,0.2,1.21,0.91,2.42,2.12
	c0.4,0.41,0.6,0.71,0.6,0.9v1.51c-0.41,1.81-1.41,3.32-3.02,4.53c-0.2,0-0.3,0.1-0.3,0.3c-0.2,0.6-0.51,1.46-0.91,2.57
	c-0.41,1.11-0.71,1.87-0.91,2.27l-0.3,0.3c-0.41,0.41-0.86,0.96-1.36,1.66c-0.51,0.71-0.86,1.26-1.06,1.66l-0.3,0.3
	c-0.2,0-0.3,0.1-0.3,0.3c0,0.2-0.1,0.3-0.3,0.3c-0.6,0.2-1.92,0.6-3.93,1.21l-0.3,0.3c-0.81,1.21-1.62,2.22-2.42,3.02
	c-0.2,0.2-0.3,0.41-0.3,0.6l-0.6,0.6c-0.2,0.41-0.45,0.91-0.75,1.51c-0.3,0.6-0.56,1.01-0.76,1.21c0,0.41-0.2,0.6-0.6,0.6
	c-0.41,0.2-1.06,0.61-1.96,1.21c-0.91,0.6-1.56,1.11-1.96,1.51h-0.3l-2.12,2.12c-0.2,0.2-0.3,0.41-0.3,0.61
	c-0.2,0.2-0.41,0.45-0.6,0.75c-0.2,0.3-0.3,0.56-0.3,0.75c0,0.2-0.1,0.5-0.3,0.91c-0.2,0.41-0.3,0.71-0.3,0.91l-0.3,0.6
	c0.2,0.2,0.3,0.41,0.3,0.6c0,0.6,0.15,1.87,0.45,3.78c0.3,1.92,0.55,3.17,0.76,3.78v0.3c9.06,4.83,18.32,7.25,27.79,7.25
	c12.08,0,23.06-3.42,32.93-10.27c-0.2-0.2-0.3-0.5-0.3-0.91v-0.6c0-0.2,0.2-0.7,0.6-1.51c0.2-0.2,0.4-0.65,0.6-1.36
	c0.2-0.7,0.4-1.26,0.6-1.66c0-0.4,0.2-0.91,0.6-1.51c0.4-0.6,0.7-1,0.91-1.21l0.3-0.6v-0.61v-0.6c0-0.2-0.05-0.4-0.15-0.6
	c-0.11-0.2-0.15-0.4-0.15-0.6c0-0.2-0.05-0.55-0.15-1.06c-0.1-0.5-0.15-0.85-0.15-1.06c-0.2-0.8-0.2-1.61,0-2.42l0.91-1.81
	c0.4-0.8,0.8-1.41,1.21-1.81l0.3-0.3l1.21-1.21c0.2-0.2,0.5-0.7,0.91-1.51c0.4-1.21,0.5-2.11,0.3-2.72c0-0.4-0.2-1-0.6-1.81
	c-0.41-0.8-0.6-1.31-0.6-1.51c-0.41-1-0.41-2.01,0-3.02l0.3-0.6l0.3-0.6c0-0.2,0.1-0.45,0.3-0.75c0.2-0.3,0.3-0.55,0.3-0.76
	c0.2-0.4,0.3-0.91,0.3-1.51c0-1.21-0.1-2.01-0.3-2.42v-0.6c0-0.2-0.2-0.3-0.6-0.3l-0.3,0.3h-0.6l-0.3,0.3c-0.2,0-0.41-0.1-0.6-0.3
	h-0.3l-0.6-0.6h-0.3l-0.6-0.3c-0.2,0-0.56-0.05-1.06-0.15c-0.51-0.1-0.86-0.15-1.06-0.15c-0.41,0-0.96,0.05-1.66,0.15
	c-0.71,0.1-1.26,0.15-1.66,0.15c-1.41,0-2.42-0.1-3.02-0.3c-0.2,0-1.01-0.5-2.42-1.51c-1.21-0.6-2.22-1.31-3.02-2.11l-3.02-3.02
	l-0.3-0.3v-0.3c0-0.2-0.05-0.5-0.15-0.91c-0.1-0.4-0.15-0.7-0.15-0.91c0-0.61,0.2-1.71,0.6-3.32l0.3-1.81
	c0.2-1.21,0.4-2.11,0.6-2.72c0.2-0.4,0.3-0.91,0.3-1.51c0-0.2,0.05-0.45,0.15-0.75c0.1-0.3,0.15-0.55,0.15-0.76l-0.3-0.3
	c0-0.2,0-0.4,0-0.6v-0.6v-0.3v-0.3l0.3-0.3c1.01-1.81,2.51-3.02,4.53-3.62l0.3-0.3c0.2-0.2,0.55-0.6,1.06-1.21
	c0.5-0.6,0.85-1.1,1.06-1.51c0.2-0.2,0.4-0.3,0.6-0.3c0.4-0.2,0.95-0.4,1.66-0.6c0.7-0.2,1.26-0.3,1.66-0.3
	c1.21-0.4,2.01-0.6,2.42-0.6c0.4,0,0.85,0.05,1.36,0.15c0.5,0.1,0.86,0.15,1.06,0.15c0.8,0,1.61,0.2,2.42,0.6h0.3h2.72
	c0.2,0,0.7,0.2,1.51,0.6l0.3,0.3h0.3h0.3l0.3,0.3c0.6,0.41,1.31,0.96,2.12,1.66c0.8,0.71,1.51,1.26,2.11,1.66h0.6h2.72
	c0.2,0,0.5,0.05,0.91,0.15C118.02,46.58,118.32,46.63,118.53,46.63z"/>
</svg>
