<?xml version="1.0" encoding="utf-8"?>
<!-- Generator: Adobe Illustrator 15.0.0, SVG Export Plug-In . SVG Version: 6.00 Build 0)  -->
<!DOCTYPE svg PUBLIC "-//W3C//DTD SVG 1.1//EN" "http://www.w3.org/Graphics/SVG/1.1/DTD/svg11.dtd">
<svg version="1.1" id="Layer_1" xmlns="http://www.w3.org/2000/svg" xmlns:xlink="http://www.w3.org/1999/xlink" x="0px" y="0px"
	 width="145.93px" height="82.96px" viewBox="0 0 145.93 82.96" enable-background="new 0 0 145.93 82.96" xml:space="preserve">
<g>
	<g>
		<path fill="#FFFFFF" d="M25.12,28.17c0,2.07-0.34,3.88-1.01,5.42s-1.58,2.83-2.72,3.87c-1.14,1.04-2.48,1.81-4.01,2.32
			c-1.53,0.51-3.14,0.76-4.85,0.76c-1.74,0-3.37-0.26-4.88-0.79c-1.51-0.53-2.83-1.31-3.98-2.34c-1.14-1.04-2.04-2.34-2.7-3.92
			S0,30.06,0,27.96v-4.03h9.32v3.49c0,0.95,0.3,1.75,0.9,2.42c0.6,0.67,1.37,1.01,2.32,1.01s1.72-0.34,2.34-1.01
			c0.62-0.67,0.93-1.48,0.93-2.42V0h9.32V28.17z"/>
		<path fill="#FFFFFF" d="M38.58,9.16v6.54h11.55v9.15H38.58v6.54h15.69v9.16H29.43V0h24.85v9.16H38.58z"/>
		<path fill="#FFFFFF" d="M73.13,40.54l-5.45-13.19h-0.11v13.19h-9.15V0h12.31h0.05c2.32,0,4.26,0.35,5.8,1.06
			c1.54,0.71,2.78,1.65,3.71,2.83c0.93,1.18,1.59,2.56,1.99,4.14c0.4,1.58,0.6,3.24,0.6,4.99c0,1.82-0.3,3.43-0.9,4.85
			c-0.6,1.42-1.31,2.61-2.12,3.57c-0.82,0.96-1.64,1.69-2.48,2.18c-0.84,0.49-1.49,0.74-1.96,0.74l8.23,16.18H73.13z"/>
		<path fill="#FFFFFF" d="M102.12,40.54l-5.45-13.19h-0.11v13.19h-9.15V0h12.31h0.05c2.32,0,4.26,0.35,5.8,1.06
			c1.54,0.71,2.78,1.65,3.71,2.83c0.93,1.18,1.59,2.56,1.99,4.14c0.4,1.58,0.6,3.24,0.6,4.99c0,1.82-0.3,3.43-0.9,4.85
			c-0.6,1.42-1.31,2.61-2.12,3.57c-0.82,0.96-1.64,1.69-2.48,2.18c-0.84,0.49-1.49,0.74-1.96,0.74l8.23,16.18H102.12z"/>
		<path fill="#FFFFFF" d="M135.04,20.27v20.27h-8.61V20.27L116.02,0h10.25L131,9.59L135.69,0h10.24L135.04,20.27z"/>
	</g>
	<g>
		<path fill="#FFFFFF" d="M32.1,66.7l12.09,16.25h-9.11l-5.26-7.05v7.05h-7.36V50.36h7.36v7.58l5.3-7.58h9.11L32.1,66.7z"/>
		<path fill="#FFFFFF" d="M54.84,82.96h-7.36V50.36h7.36V82.96z"/>
		<path fill="#FFFFFF" d="M80.07,57.72h-7.4v25.23h-7.36V57.72h-7.4v-7.36h22.17V57.72z"/>
		<path fill="#FFFFFF" d="M90.23,57.72v5.26h9.29v7.36h-9.29v5.26h12.62v7.36H82.88V50.36h19.98v7.36H90.23z"/>
	</g>
	<g>
		<path fill="#FFFFFF" d="M119.68,79.93c0.42,0.03,0.77-0.07,1.05-0.3c0.28-0.23,0.49-0.51,0.64-0.83l2.14,1.12
			c-0.09,0.17-0.21,0.38-0.38,0.64c-0.16,0.26-0.39,0.51-0.69,0.76s-0.67,0.46-1.13,0.64s-1.02,0.27-1.69,0.27h-0.01
			c-0.75,0-1.37-0.11-1.88-0.33c-0.51-0.22-0.92-0.52-1.24-0.89c-0.32-0.37-0.55-0.81-0.7-1.3c-0.15-0.49-0.23-1.01-0.27-1.54v-2.13
			c0.01-0.51,0.1-1.01,0.27-1.5c0.17-0.49,0.43-0.93,0.77-1.32c0.34-0.39,0.77-0.7,1.28-0.93c0.51-0.23,1.11-0.35,1.78-0.35h0.02
			c0.6,0,1.12,0.08,1.55,0.24c0.43,0.16,0.8,0.36,1.11,0.61c0.31,0.25,0.56,0.53,0.75,0.84c0.19,0.31,0.34,0.63,0.45,0.94
			l-2.14,1.12c-0.06-0.17-0.14-0.34-0.24-0.51c-0.1-0.18-0.23-0.33-0.38-0.47c-0.15-0.14-0.31-0.25-0.5-0.33
			c-0.19-0.08-0.38-0.12-0.59-0.11c-0.5,0.04-0.9,0.22-1.2,0.56c-0.3,0.34-0.45,0.76-0.45,1.27v2.01c0,0.51,0.15,0.93,0.46,1.28
			S119.18,79.9,119.68,79.93z"/>
		<path fill="#FFFFFF" d="M132.51,79.64c-0.16,0.51-0.44,0.96-0.83,1.35c-0.4,0.41-0.86,0.71-1.38,0.93
			c-0.52,0.21-1.06,0.32-1.64,0.32h-0.01c-0.57,0-1.11-0.11-1.63-0.32c-0.52-0.21-0.98-0.52-1.39-0.91
			c-0.38-0.39-0.66-0.83-0.82-1.31s-0.25-1.01-0.26-1.56v-2.41c0-0.44,0.09-0.89,0.28-1.35c0.19-0.46,0.45-0.86,0.8-1.21
			c0.41-0.4,0.88-0.7,1.38-0.91c0.51-0.21,1.06-0.32,1.64-0.32h0.01c0.58,0,1.13,0.11,1.64,0.32s0.97,0.52,1.38,0.91
			c0.36,0.35,0.62,0.75,0.8,1.19c0.18,0.44,0.27,0.9,0.28,1.37v2.41C132.76,78.62,132.68,79.12,132.51,79.64z"/>
		<path fill="#FFFFFF" d="M143.06,82.22h-2.62v-3.6l-1.34,3.6h-1.59l-1.37-3.71v3.71h-2.62V71.92h2.52l2.27,5.98l2.28-5.98h2.48
			V82.22z"/>
	</g>
	<g>
		<path fill="#FFFFFF" d="M124.14,63.13v-1.91h2.02v1.91H124.14z"/>
	</g>
	<g>
		<path fill="#FFFFFF" d="M130.82,63.13v-1.91h2.02v1.91H130.82z"/>
	</g>
	<g>
		<path fill="#FFFFFF" d="M138.47,61.44c-0.31-0.11-0.6-0.1-0.86,0.03c-0.26,0.13-0.48,0.31-0.66,0.54l-1.37-1.33
			c0.1-0.12,0.24-0.26,0.42-0.43s0.4-0.33,0.68-0.47c0.28-0.14,0.6-0.24,0.99-0.29c0.38-0.05,0.82-0.01,1.33,0.12l0.01,0
			c0.56,0.15,1.01,0.37,1.34,0.64c0.33,0.28,0.58,0.6,0.74,0.96s0.24,0.76,0.25,1.18c0.01,0.42-0.04,0.85-0.13,1.29l-0.46,1.71
			c-0.12,0.4-0.29,0.79-0.53,1.15c-0.24,0.36-0.52,0.66-0.86,0.9c-0.34,0.24-0.72,0.41-1.16,0.49c-0.44,0.08-0.91,0.06-1.42-0.08
			l-0.01,0c-0.45-0.12-0.82-0.29-1.12-0.5c-0.29-0.21-0.53-0.45-0.71-0.71c-0.18-0.26-0.31-0.54-0.38-0.83
			c-0.08-0.29-0.12-0.57-0.13-0.84l1.85-0.47c0.01,0.15,0.03,0.3,0.07,0.46c0.04,0.16,0.1,0.31,0.18,0.45
			c0.08,0.14,0.18,0.26,0.31,0.37c0.12,0.1,0.26,0.17,0.42,0.21c0.39,0.07,0.73,0,1.02-0.21c0.3-0.21,0.5-0.52,0.61-0.92l0.43-1.61
			c0.11-0.41,0.09-0.78-0.07-1.12C139.1,61.81,138.84,61.57,138.47,61.44z"/>
	</g>
	<g>
		<path fill="#FFFFFF" d="M134.39,54.96c-0.25,0.22-0.38,0.47-0.4,0.76s0.03,0.57,0.13,0.84l-1.83,0.52
			c-0.05-0.15-0.11-0.34-0.17-0.58c-0.06-0.24-0.09-0.52-0.07-0.82c0.02-0.31,0.1-0.64,0.24-1c0.15-0.36,0.4-0.72,0.77-1.09
			l0.01-0.01c0.41-0.41,0.82-0.69,1.23-0.84c0.41-0.15,0.81-0.2,1.21-0.16c0.39,0.04,0.78,0.17,1.15,0.38
			c0.37,0.21,0.72,0.46,1.05,0.76l1.25,1.25c0.29,0.3,0.54,0.65,0.73,1.03c0.19,0.38,0.31,0.78,0.35,1.2
			c0.04,0.41-0.01,0.83-0.15,1.25c-0.14,0.42-0.4,0.82-0.77,1.19l-0.01,0.01c-0.33,0.33-0.66,0.57-0.99,0.71
			c-0.33,0.15-0.65,0.23-0.97,0.25s-0.62,0-0.91-0.08s-0.56-0.18-0.8-0.3l0.52-1.83c0.13,0.06,0.27,0.12,0.43,0.17
			s0.32,0.07,0.48,0.07s0.32-0.03,0.47-0.08c0.15-0.05,0.28-0.14,0.39-0.26c0.26-0.3,0.37-0.63,0.33-0.99
			c-0.03-0.36-0.2-0.69-0.5-0.99l-1.18-1.18c-0.3-0.3-0.63-0.46-1-0.5S134.69,54.7,134.39,54.96z"/>
	</g>
	<g>
		<path fill="#FFFFFF" d="M118.29,62.15c-0.15,0.34-0.18,0.71-0.07,1.12l0.43,1.61c0.11,0.41,0.31,0.71,0.61,0.92
			c0.3,0.21,0.64,0.28,1.02,0.21c0.16-0.03,0.3-0.1,0.42-0.21c0.12-0.1,0.22-0.23,0.31-0.37c0.08-0.14,0.14-0.29,0.18-0.45
			c0.04-0.16,0.06-0.31,0.07-0.46l1.85,0.47c-0.01,0.27-0.06,0.55-0.13,0.84c-0.08,0.29-0.21,0.56-0.38,0.83
			c-0.18,0.26-0.41,0.5-0.71,0.71c-0.29,0.21-0.66,0.38-1.11,0.5l-0.01,0c-0.51,0.14-0.98,0.16-1.42,0.08
			c-0.43-0.09-0.82-0.25-1.16-0.49c-0.34-0.24-0.62-0.54-0.86-0.9c-0.23-0.36-0.41-0.74-0.53-1.15l-0.46-1.71
			c-0.09-0.43-0.14-0.87-0.13-1.29c0-0.43,0.09-0.82,0.25-1.18s0.41-0.68,0.74-0.96c0.33-0.28,0.78-0.49,1.34-0.64l0.01,0
			c0.5-0.13,0.95-0.18,1.33-0.12c0.38,0.05,0.71,0.15,0.99,0.29c0.28,0.14,0.5,0.3,0.68,0.47c0.18,0.17,0.32,0.32,0.42,0.43
			l-1.37,1.33c-0.18-0.23-0.4-0.41-0.66-0.54c-0.26-0.13-0.54-0.14-0.86-0.03C118.71,61.57,118.45,61.81,118.29,62.15z"/>
	</g>
	<g>
		<path fill="#FFFFFF" d="M122.16,54.63c-0.37,0.04-0.7,0.2-1,0.5l-1.18,1.18c-0.3,0.3-0.46,0.63-0.5,0.99
			c-0.03,0.36,0.08,0.69,0.33,0.99c0.11,0.12,0.24,0.21,0.39,0.26c0.15,0.05,0.31,0.08,0.47,0.08s0.32-0.02,0.48-0.07
			c0.16-0.05,0.3-0.1,0.44-0.17l0.52,1.83c-0.24,0.12-0.51,0.23-0.8,0.3c-0.29,0.08-0.59,0.11-0.91,0.08
			c-0.32-0.03-0.64-0.11-0.97-0.26c-0.33-0.15-0.66-0.38-0.99-0.71l-0.01-0.01c-0.37-0.37-0.63-0.77-0.77-1.19
			c-0.14-0.42-0.2-0.84-0.15-1.25c0.04-0.41,0.16-0.81,0.35-1.2c0.2-0.38,0.44-0.73,0.73-1.03l1.25-1.25
			c0.33-0.3,0.68-0.55,1.05-0.76s0.75-0.33,1.15-0.38c0.39-0.04,0.8,0.01,1.21,0.16c0.41,0.15,0.82,0.43,1.23,0.84l0.01,0.01
			c0.37,0.37,0.62,0.73,0.77,1.09c0.15,0.36,0.23,0.69,0.24,1c0.02,0.31-0.01,0.58-0.07,0.82c-0.06,0.24-0.12,0.43-0.17,0.58
			l-1.83-0.52c0.11-0.27,0.15-0.55,0.13-0.84s-0.15-0.54-0.4-0.76C122.86,54.7,122.53,54.59,122.16,54.63z"/>
	</g>
	<g>
		<path fill="#FFFFFF" d="M126.79,53.49c-0.02,0.33,0.06,0.6,0.25,0.82c0.19,0.22,0.42,0.38,0.69,0.5l-0.93,1.66
			c-0.14-0.07-0.31-0.17-0.53-0.29c-0.21-0.13-0.42-0.3-0.63-0.53s-0.38-0.52-0.53-0.88c-0.15-0.36-0.22-0.79-0.22-1.31v-0.01
			c0-0.58,0.09-1.07,0.28-1.46c0.18-0.39,0.43-0.72,0.74-0.96c0.31-0.25,0.67-0.43,1.08-0.54c0.41-0.11,0.84-0.18,1.28-0.21h1.77
			c0.42,0.01,0.84,0.08,1.25,0.21c0.41,0.13,0.77,0.33,1.1,0.6c0.32,0.26,0.58,0.59,0.77,0.99c0.2,0.4,0.29,0.86,0.29,1.39v0.01
			c0,0.47-0.06,0.87-0.2,1.21c-0.13,0.34-0.3,0.63-0.5,0.87c-0.21,0.24-0.44,0.44-0.7,0.59c-0.26,0.15-0.52,0.27-0.78,0.35
			l-0.93-1.66c0.14-0.05,0.28-0.11,0.42-0.19c0.15-0.08,0.28-0.18,0.39-0.29c0.12-0.11,0.21-0.24,0.28-0.39s0.1-0.3,0.09-0.46
			c-0.03-0.39-0.19-0.7-0.46-0.94s-0.63-0.35-1.05-0.35h-1.66c-0.42,0-0.78,0.12-1.06,0.36S126.82,53.1,126.79,53.49z"/>
	</g>
</g>
</svg>
