<?xml version="1.0" encoding="utf-8"?>
<!-- Generator: Adobe Illustrator 15.0.0, SVG Export Plug-In . SVG Version: 6.00 Build 0)  -->
<!DOCTYPE svg PUBLIC "-//W3C//DTD SVG 1.1//EN" "http://www.w3.org/Graphics/SVG/1.1/DTD/svg11.dtd">
<svg version="1.1" id="Layer_1" xmlns="http://www.w3.org/2000/svg" xmlns:xlink="http://www.w3.org/1999/xlink" x="0px" y="0px"
	 width="97.98px" height="98.16px" viewBox="0 0 97.98 98.16" enable-background="new 0 0 97.98 98.16" xml:space="preserve">
<g>
	<path fill="#1ABC9C" d="M42.35,0.04v46.48l-0.14,0.86c2.57-3.72,5.71-8.02,8.14-11.16L79.82,0.04h15.44l-34.89,40.9l37.61,55.49
		H83.25L51.64,49.08l-9.29,10.58V0.04z"/>
	<path fill="#14DDB3" d="M19.71,0v12.37h10.18v51.33c0,18.88-6.44,23.89-17.59,23.89c-4.29,0-8.01-0.86-10.58-1.87L0,95.87
		c3,1.29,8.58,2.29,13.3,2.29c16.59,0,29.17-7.07,29.17-32.67L42.35,0H19.71z"/>
</g>
</svg>
