<?xml version="1.0" encoding="utf-8"?>
<!-- Generator: Adobe Illustrator 15.0.0, SVG Export Plug-In . SVG Version: 6.00 Build 0)  -->
<!DOCTYPE svg PUBLIC "-//W3C//DTD SVG 1.1//EN" "http://www.w3.org/Graphics/SVG/1.1/DTD/svg11.dtd">
<svg version="1.1" id="Layer_1" xmlns="http://www.w3.org/2000/svg" xmlns:xlink="http://www.w3.org/1999/xlink" x="0px" y="0px"
	 width="168.52px" height="55.46px" viewBox="0 0 168.52 55.46" enable-background="new 0 0 168.52 55.46" xml:space="preserve">
<g>
	<path fill="#FFFFFF" d="M80.85,18.92c-0.11-0.76-0.7-1.41-1.49-1.41c-2.47,0-5,8.92-5.51,10.87c-1.06,4-2.76,11.2-2.21,15.05
		c0.13,0.94,0.41,1.42,0.85,1.42c0.16,0,0.39-0.05,0.69-0.15c0.3-0.1,0.63-0.36,0.98-0.79c0.35-0.43,0.73-1.06,1.15-1.89
		s0.79-1.98,1.13-3.48l4.32-18.33C80.86,19.63,80.89,19.2,80.85,18.92 M88.96,37.95c-0.18,0.37-0.37,0.73-0.56,1.09
		c-0.99,1.87-2.03,3.49-3.12,4.86c-1.08,1.38-2.18,2.46-3.28,3.27c-1.1,0.81-2.15,1.21-3.13,1.21c-0.79,0-1.39-0.26-1.82-0.77
		c-0.43-0.51-0.69-1.1-0.78-1.77c-0.06-0.39-0.07-0.78-0.04-1.15c0.03-0.37,0.05-0.72,0.09-1.03c0.07-0.35,0.14-0.71,0.21-1.06
		c0.02-0.16,0.03-0.24,0.03-0.24c-0.09,0-0.17,0.1-0.21,0.18c-0.54,1.45-1.16,2.58-1.85,3.39c-0.69,0.81-1.36,1.4-2.02,1.8
		c-0.65,0.39-1.22,0.63-1.7,0.71c-0.48,0.08-0.8,0.12-0.96,0.12c-1.57,0-2.76-0.53-3.55-1.59s-1.33-2.53-1.59-4.42
		c-0.26-1.88-0.29-3.85-0.09-5.89c0.21-2.04,0.58-4.05,1.13-6.01c0.55-1.96,1.26-3.83,2.13-5.6c0.87-1.77,1.85-3.33,2.94-4.68
		c1.09-1.36,2.25-2.43,3.5-3.21c1.25-0.79,2.54-1.18,3.87-1.18c0.67,0,1.23,0.11,1.7,0.33c0.46,0.22,0.83,0.46,1.11,0.74
		c0.32,0.32,0.54,0.65,0.67,1c0.05,0.12,0.12,0.18,0.2,0.18c0,0,0.02-0.02,0.05-0.06l0.05-0.06c0.51-0.59,1.06-1.06,1.66-1.41
		c0.6-0.35,1.2-0.62,1.8-0.8s1.18-0.29,1.72-0.35s1.01-0.11,1.39-0.15c0.12,0,0.19,0.06,0.2,0.18l-5.51,23.28
		c-0.26,1.12-0.01,1.91,1.15,1.88c1.75-0.04,3.23-3.12,3.92-4.42c0.3-0.57,0.63-1.25,0.97-2.02c0.14-1.08,0.33-2.18,0.57-3.31
		c0.41-1.87,0.98-3.71,1.73-5.54c0.74-1.83,1.68-3.47,2.81-4.92c1.13-1.45,2.45-2.63,3.95-3.54c1.5-0.9,3.24-1.35,5.2-1.35
		c0.35,0,0.87,0.03,1.54,0.09s1.37,0.26,2.09,0.62c0.72,0.35,1.38,0.9,2,1.65c0.62,0.75,1.02,1.79,1.21,3.12
		c0.1,0.71,0.11,1.46,0.02,2.27c-0.08,0.81-0.29,1.55-0.63,2.24c-0.34,0.69-0.82,1.27-1.46,1.74c-0.64,0.47-1.45,0.71-2.43,0.71
		c-0.16,0-0.42-0.02-0.78-0.06s-0.73-0.17-1.11-0.38c-0.38-0.22-0.74-0.52-1.07-0.91c-0.33-0.39-0.54-0.94-0.64-1.65
		c-0.16-1.14-0.03-2.12,0.38-2.95s1.33-1.51,2.74-2.06c0.11-0.04,0.24-0.14,0.37-0.29c0.1-0.12,0.19-0.26,0.27-0.41
		c0.08-0.16,0.09-0.37,0.06-0.65c-0.07-0.75-0.34-1.22-0.82-1.42s-0.9-0.29-1.25-0.29c-0.63,0-1.16,0.17-1.58,0.5
		c-0.43,0.33-0.76,0.72-1.02,1.15c-0.33,0.47-0.56,1.02-0.71,1.65c-0.85,3.73-1.56,6.79-2.13,9.16c-0.57,2.38-1,4.31-1.3,5.8
		c-0.3,1.49-0.49,2.67-0.56,3.54c-0.07,0.86-0.06,1.63,0.03,2.3c0.14,1.02,0.48,1.88,1.01,2.56c0.53,0.69,1.32,1.03,2.38,1.03
		c0.67,0,1.52-0.21,2.56-0.62s2.08-1.38,3.12-2.92c0.7-0.9,1.36-1.92,1.99-3.06c0.53-0.98,1.07-2.14,1.63-3.48
		c0.56-1.33,1.02-2.83,1.37-4.48l0.02-0.01l2.25-9.48c0.27-1.18,0.74-2.11,1.43-2.8s1.43-1.21,2.23-1.56
		c0.79-0.35,1.58-0.58,2.35-0.68c0.77-0.1,1.39-0.17,1.86-0.21c0.12,0,0.18,0.04,0.19,0.12l-5.38,22.92
		c-0.12,0.43-0.36,1.94,0.39,1.94c0.8,0,1.49-0.24,2.11-0.71s1.16-1.08,1.63-1.83c0.46-0.75,0.87-1.59,1.21-2.53
		c0.34-0.94,0.62-1.89,0.84-2.83l2.87-11.84c0.31-1.18,0.79-2.11,1.46-2.8s1.39-1.21,2.17-1.56c0.78-0.35,1.55-0.58,2.32-0.68
		c0.77-0.1,1.39-0.17,1.86-0.21c0.07,0,0.12,0.01,0.15,0.04c0.34-0.51,0.73-1.01,1.15-1.49c1.24-1.43,2.79-2.62,4.64-3.57
		c1.85-0.96,3.97-1.44,6.37-1.44c0.56,0,1.2,0.05,1.93,0.16c0.73,0.1,1.45,0.36,2.17,0.76s1.35,0.97,1.91,1.7
		c0.56,0.73,0.92,1.72,1.1,2.97c0.06,0.42,0.09,0.9,0.1,1.43c0.01,0.54-0.05,1.1-0.18,1.7c0.03,0.19,0.32,0.21,0.37,0.05
		c0,0,0.21-0.43,0.63-1.28c0.42-0.85,1.05-1.77,1.91-2.77c0.85-0.99,1.91-1.9,3.16-2.74c1.26-0.83,2.72-1.25,4.39-1.25
		c0.42,0,0.94,0.05,1.56,0.16c0.62,0.1,1.24,0.34,1.85,0.7c0.61,0.37,1.16,0.9,1.66,1.59c0.5,0.7,0.83,1.63,0.99,2.82
		c0.04,0.28,0.07,0.76,0.1,1.44c0.03,0.68-0.01,1.59-0.11,2.74c-0.1,1.15-0.31,2.54-0.64,4.17c-0.33,1.63-0.81,3.51-1.45,5.63
		c-0.7,2.71-1.29,5.41-1.79,8.09c-0.22,1.15-0.41,2.33-0.57,3.55c-0.16,1.22-0.29,2.44-0.4,3.68s-0.15,2.43-0.15,3.57
		c0.01,1.15,0.08,2.21,0.21,3.18c0.19,1.33,0.53,2.43,1.02,3.29c0.01,0.02,0.02,0.03,0.03,0.05c0.08,0.13,0.15,0.19,0.21,0.37
		c0.01,0.1-0.1,0.12-0.17,0.09c-0.04-0.01-0.13-0.04-0.24-0.09c-0.01-0.01-0.02-0.01-0.03-0.01c-4.94-2.33-7.73-5.86-8.4-10.58
		c-0.08-0.59-0.11-1.33-0.08-2.22c0.03-0.89,0.11-1.83,0.23-2.82c0.12-0.99,0.26-1.98,0.42-2.97s0.32-1.9,0.5-2.74
		c0.18-0.83,0.35-1.55,0.51-2.14c0.53-1.94,1.21-3.92,1.75-5.9c0.36-1.29,0.64-2.35,0.83-3.18c0.25-0.97,0.43-1.77,0.55-2.4
		c0.04-0.21,0.08-0.43,0.11-0.68c0.04-0.21,0.06-0.44,0.06-0.71c0-0.26-0.02-0.53-0.06-0.81c-0.08-0.56-0.29-1.04-0.62-1.46
		s-0.85-0.63-1.55-0.63c-0.59,0-1.15,0.19-1.69,0.57c-0.54,0.38-1.05,0.9-1.53,1.54s-0.94,1.37-1.37,2.17
		c-0.43,0.8-0.81,1.62-1.14,2.45c-0.83,1.98-1.6,4.23-2.29,6.73l-4.73,19.77H138l7.59-31.41c0.22-0.94,0.28-1.76,0.18-2.45
		c-0.15-1.08-0.54-1.83-1.15-2.24c-0.62-0.42-1.15-0.62-1.6-0.62c-1.15,0-2.14,0.23-2.98,0.68c-0.84,0.45-1.53,0.99-2.07,1.62
		c-0.54,0.63-0.92,1.28-1.13,1.96c-0.22,0.68-0.3,1.23-0.24,1.64c0.02,0.17,0.08,0.34,0.17,0.5c0.09,0.16,0.28,0.24,0.56,0.24
		c0.17,0,0.29-0.03,0.35-0.08c0.06-0.05,0.3-0.08,0.72-0.08c0.49,0.03,0.95,0.17,1.36,0.42c0.34,0.21,0.68,0.54,1.03,0.99
		c0.34,0.45,0.57,1.08,0.68,1.88c0.16,1.11,0.12,2.12-0.12,3.03c-0.24,0.9-0.61,1.67-1.11,2.3c-0.5,0.63-1.09,1.11-1.75,1.46
		c-0.66,0.35-1.36,0.52-2.09,0.52c-1.04,0-1.92-0.2-2.62-0.6c-0.7-0.4-1.27-0.9-1.7-1.49c-0.43-0.59-0.76-1.24-0.98-1.93
		c-0.12-0.38-0.22-0.74-0.3-1.09l-3.45,14.7c-0.16,0.71-0.12,1.41,0.27,1.89c0.19,0.24,0.46,0.35,0.82,0.35
		c0.31,0,0.73-0.14,1.26-0.5c0.51-0.35,1.15-1.13,1.87-2.39c0.42-0.67,0.83-1.39,1.23-2.18c0.34-0.67,0.7-1.46,1.08-2.39
		c0.38-0.92,0.73-1.95,1.04-3.09c0,0,0.04,0.02,0.12,0.06c0.78,0.68,0.52,1.91,0.21,2.77c-0.76,2.16-1.67,4.18-2.74,6.07
		c-1.07,1.89-2.2,3.53-3.38,4.92c-1.18,1.4-2.37,2.5-3.57,3.3c-1.2,0.8-2.32,1.21-3.34,1.21c-1.02,0-1.74-0.29-2.16-0.88
		c-0.42-0.59-0.67-1.22-0.77-1.89c-0.07-0.47-0.05-1.06,0.05-1.77c0.1-0.71,0.22-1.39,0.36-2.06c0.17-0.75,0.37-1.55,0.6-2.42
		c0.01-0.08,0.03-0.13,0.03-0.24c-0.01-0.08-0.04-0.12-0.08-0.12c-0.08,0-0.18,0.09-0.31,0.27c-0.13,0.18-0.23,0.32-0.29,0.44
		c-0.32,0.51-0.8,1.26-1.45,2.24c-0.65,0.98-1.39,1.96-2.24,2.92c-0.85,0.96-1.77,1.81-2.77,2.53c-1,0.73-1.99,1.11-2.96,1.15
		c-0.16,0-0.38-0.02-0.66-0.06c-0.28-0.04-0.57-0.15-0.87-0.32c-0.3-0.18-0.57-0.42-0.81-0.74s-0.4-0.77-0.49-1.36
		c-0.11-0.75-0.01-1.77,0.28-3.06l0.98-4.16l-0.08,0.15c-0.6,1.06-1.22,2.1-1.86,3.12c-0.97,1.45-1.96,2.6-2.96,3.45
		c-1,0.84-1.95,1.48-2.85,1.92c-0.9,0.43-1.72,0.71-2.45,0.83c-0.73,0.12-1.29,0.18-1.69,0.18c-1.41,0-2.6-0.3-3.54-0.91
		c-0.95-0.61-1.71-1.35-2.29-2.21c-0.57-0.86-1-1.74-1.28-2.62s-0.46-1.62-0.55-2.21C89,39.96,88.95,39.01,88.96,37.95z M54.28,4.85
		c0.09,0.65,0.07,1.43-0.05,2.35c-0.12,0.92-0.51,1.89-1.15,2.91c-0.18,0.21-0.41-0.06-0.51-0.21c-0.39-0.46-0.86-0.88-1.42-1.25
		c-0.46-0.32-1.02-0.61-1.68-0.87s-1.4-0.38-2.23-0.38c-0.46,0-1.04,0.06-1.74,0.17c-0.7,0.11-1.57,0.44-2.6,0.97
		c-1.03,0.53-2.23,1.36-3.6,2.49c-1.36,1.13-2.9,2.69-4.61,4.67c-0.28,0.32-0.35,0.92-0.23,1.8c0.06,0.46,0.26,1.42,0.58,2.87
		c0.32,1.45,0.81,3.21,1.47,5.26s1.47,4.32,2.44,6.79c0.97,2.47,2.13,4.97,3.48,7.51c0.66,1.25,1.37,2.47,2.14,3.69l5.49-22.95
		c0.3-1.22,0.8-2.17,1.51-2.86s1.47-1.2,2.29-1.53c0.82-0.33,1.59-0.55,2.33-0.65c0.73-0.1,1.25-0.15,1.57-0.15h0.12
		c0.12,0,0.18,0.04,0.19,0.12l-1.6,6.25c-0.03,0.07-0.06,0.41,0.06,0.41c0.04,0,0.11-0.08,0.2-0.24c0.16-0.24,0.51-0.69,1.05-1.35
		c0.54-0.67,1.18-1.34,1.93-2c0.75-0.67,1.55-1.27,2.4-1.8c0.85-0.53,1.69-0.8,2.51-0.8c0.12,0,0.31,0.02,0.57,0.06
		c0.26,0.04,0.52,0.15,0.78,0.32c0.26,0.18,0.52,0.46,0.77,0.85c0.25,0.39,0.42,0.92,0.52,1.59c0.14,0.98,0.09,2.12-0.14,3.42
		c-0.23,1.3-0.67,2.53-1.33,3.71c-0.66,1.18-1.52,2.18-2.58,3c-1.06,0.83-2.36,1.26-3.88,1.3l1.95-7.96
		c0.12-0.51,0.17-0.86,0.14-1.06c-0.06-0.43-0.35-0.65-0.86-0.65c-0.79,0-1.48,0.28-2.09,0.85c-0.61,0.57-1.14,1.26-1.6,2.06
		c-0.46,0.81-0.83,1.67-1.11,2.59c-0.28,0.92-0.51,1.74-0.69,2.45l-3.64,15.2c-0.3,1.22-0.82,2.18-1.57,2.89
		c-0.62,0.59-1.28,1.06-1.96,1.4c1.8,3.93,8.69,2.55,11.16-1.96c0.63-1,1.21-2.1,1.73-3.32c0.44-1.05,0.87-2.28,1.29-3.68
		c0.16-0.53,0.3-1.07,0.42-1.64c0.56-0.1,1.27,0.98,0.62,2.86c-0.03,0.08-0.06,0.17-0.09,0.26c-0.39,1.2-0.8,2.29-1.22,3.25
		c-0.5,1.14-1.03,2.26-1.58,3.36c-2.42,4.48-5.87,7.51-11.05,7.91c-0.59,0.05-0.98,0.07-1.17,0.07c-3.19,0-5.85-0.76-8.01-2.28
		c-2.15-1.52-3.92-3.43-5.3-5.71s-2.46-4.77-3.23-7.44c-0.77-2.68-1.36-5.16-1.77-7.44s-0.73-4.19-0.94-5.71
		c-0.2-1.43-0.43-2.19-0.68-2.28c-0.11-0.04-0.16,0.01-0.25,0.06c-0.72,0.79-1.25,1.64-1.58,2.56c-0.33,0.92-0.57,1.87-0.71,2.84
		c-0.33,2.21-0.77,4.38-1.3,6.51c-0.44,1.8-1.02,3.68-1.73,5.64s-1.6,3.63-2.65,5.02c-1.47,1.98-2.99,3.54-4.54,4.67
		c-1.55,1.13-2.99,1.97-4.32,2.53c-1.33,0.55-2.52,0.9-3.56,1.04c-1.04,0.14-1.79,0.21-2.25,0.21c-0.46,0-0.74-0.01-0.84-0.03
		c-0.1-0.02-0.15-0.08-0.16-0.17c0.01-0.12,0.03-0.13,0.11-0.21c0.77-0.74,1.49-1.58,2.14-2.53c0.65-0.95,1.27-1.94,1.87-2.98
		c0.59-1.04,1.13-2.09,1.6-3.15c0.47-1.06,0.89-2.1,1.26-3.12c0.87-2.35,1.61-4.78,2.23-7.27c0.25-1.15,0.54-2.34,0.85-3.57
		c0.31-1.22,0.61-2.34,0.88-3.36c0.34-1.2,0.66-2.35,0.97-3.46c1.02-3.92,2.12-7.26,3.3-10c1.18-2.75,2.28-4.97,3.29-6.68
		c1.2-1.98,2.38-3.6,3.54-4.85c0.08-0.09,0.12-0.16,0.11-0.21c-0.01-0.05-0.14-0.09-0.4-0.14S25.35,3.66,25,3.63S24.3,3.6,23.95,3.6
		s-0.61,0-0.8,0c-2.63,0-4.81,0.29-6.52,0.87c-1.72,0.58-3.11,1.19-4.17,1.83C11.24,7.13,10.28,8.03,9.58,9
		C9.54,9,9.39,9.27,9.14,9.8c-0.25,0.53-0.33,1.07-0.26,1.63c0.05,0.37,0.33,0.57,0.84,0.59c0.51,0.02,1.09,0.11,1.74,0.28
		c0.64,0.16,1.27,0.51,1.88,1.04c0.61,0.53,1,1.47,1.19,2.8c0.34,2.4,0.16,4.24-0.54,5.5s-1.54,2.2-2.51,2.8
		c-1.1,0.69-2.43,1.08-3.99,1.18c-1.43,0-2.61-0.24-3.53-0.73c-0.92-0.48-1.65-1.1-2.2-1.83c-0.54-0.74-0.93-1.54-1.17-2.39
		c-0.24-0.85-0.4-1.63-0.5-2.32c-0.25-1.8-0.01-3.76,0.73-5.89c0.74-2.12,2.09-4.11,4.04-5.96c1.96-1.85,4.58-3.39,7.86-4.64
		C16.02,0.62,20.09,0,24.94,0c0.28,0,0.83,0.02,1.67,0.07c0.84,0.05,1.69,0.1,2.55,0.17c0.86,0.07,1.64,0.15,2.32,0.24
		c0.68,0.09,1.03,0.21,1.05,0.35c0.02,0.03,0.03,0.17-0.1,0.28c-0.76,0.51-1.45,1.5-2.07,2.98c-0.56,1.25-1.15,3.02-1.74,5.33
		s-1.11,5.4-1.53,9.28c-0.02,0.19-0.06,0.54-0.04,0.69c0.24-0.03,0.34-0.24,0.46-0.4c0.11-0.15,0.44-0.65,1.04-1.47
		c0.72-0.97,1.67-2.16,2.86-3.57c1.19-1.41,2.54-2.92,4.07-4.54c1.53-1.62,3.11-3.1,4.74-4.47c1.63-1.36,3.25-2.5,4.85-3.43
		c1.6-0.92,3.07-1.38,4.41-1.38c0.37,0,0.8,0.06,1.3,0.17c0.5,0.12,0.98,0.35,1.45,0.69c0.46,0.34,0.89,0.82,1.27,1.42
		C53.88,3.02,54.14,3.83,54.28,4.85z"/>
	<path fill-rule="evenodd" clip-rule="evenodd" fill="#FFFFFF" d="M104.9,13.31c0.15-0.54,0.37-1,0.68-1.4
		c0.31-0.4,0.67-0.73,1.08-0.98c0.41-0.25,0.86-0.45,1.36-0.6c0.49-0.15,0.99-0.24,1.47-0.28c1.17-0.16,2.44-0.13,3.81,0.11
		c1.86,0.19,3.35-0.06,4.46-0.74c1.11-0.69,1.96-1.48,2.53-2.38c0.69-1.08,1.14-2.32,1.37-3.71c0.12-0.34,0.09-0.53-0.08-0.56
		c-0.08-0.02-0.18,0.01-0.28,0.08c-0.43,0.82-1.02,1.4-1.77,1.74c-0.75,0.34-1.52,0.55-2.3,0.61c-0.89,0.07-1.84,0.02-2.85-0.13
		c-0.93-0.11-1.78-0.13-2.54-0.06c-0.77,0.07-1.46,0.21-2.07,0.41c-0.61,0.21-1.15,0.46-1.61,0.76c-0.46,0.3-0.86,0.63-1.2,0.97
		c-0.8,0.8-1.39,1.75-1.77,2.84c-0.04,0.1-0.08,0.19-0.13,0.25c-0.01,0.01-0.02,0.01-0.04,0.02
		C105.22,11.19,105.2,12.18,104.9,13.31"/>
	<path fill-rule="evenodd" clip-rule="evenodd" fill="#FFFFFF" d="M94.31,9.59c0.47,0.1,0.97,0.17,1.52,0.21
		c0.54,0.04,1.05,0.03,1.52-0.02c0.57-0.02,1.13-0.09,1.68-0.19c1.32-0.17,2.34-0.08,3.04,0.26c0.71,0.34,1.23,0.77,1.57,1.27
		c0.4,0.56,0.63,1.25,0.69,2.06c0.03,0.4,0.55,0.22,0.58,0.1c0-0.01,0-0.01,0.01-0.02c0.62-2.38-0.02-4.18-1.29-6.02
		c-0.22-0.31-0.48-0.62-0.79-0.93c-0.31-0.31-0.67-0.58-1.08-0.81s-0.88-0.41-1.4-0.54c-0.52-0.13-1.1-0.19-1.74-0.17
		c-0.35,0.02-0.73,0.05-1.13,0.07c-0.71,0.04-1.55,0.06-2.51,0.05c-0.64,0.02-1.29-0.05-1.95-0.19c-0.55-0.12-1.14-0.33-1.77-0.63
		c-0.63-0.3-1.19-0.73-1.7-1.29c-0.05-0.09-0.11-0.17-0.16-0.23c-0.11-0.12-0.21-0.15-0.29-0.07c-0.02,0.02-0.04,0.09-0.03,0.21
		c0.01,0.1,0.02,0.21,0.03,0.34s0.06,0.33,0.13,0.58c0.42,1.32,0.92,2.36,1.5,3.14c0.58,0.77,1.13,1.37,1.66,1.78
		C93.02,9.05,93.66,9.39,94.31,9.59"/>
</g>
</svg>
