<?xml version="1.0" encoding="utf-8"?>
<!-- Generator: Adobe Illustrator 15.0.0, SVG Export Plug-In . SVG Version: 6.00 Build 0)  -->
<!DOCTYPE svg PUBLIC "-//W3C//DTD SVG 1.1//EN" "http://www.w3.org/Graphics/SVG/1.1/DTD/svg11.dtd">
<svg version="1.1" id="Layer_1" xmlns="http://www.w3.org/2000/svg" xmlns:xlink="http://www.w3.org/1999/xlink" x="0px" y="0px"
	 width="143.52px" height="44.54px" viewBox="0 0 143.52 44.54" enable-background="new 0 0 143.52 44.54" xml:space="preserve">
<path fill="none" stroke="#F38268" stroke-width="1.5" stroke-miterlimit="10" d="M137.9,15.09c-1.5,0-2.89,0.67-3.83,1.83
	c-0.1,0.12-0.42,0.67-0.5,0.81c-1,1.58-2.85,2.52-5.33,2.71c-3.89,0.29-9.15-1.37-14.79-4.58c-2.87-1.62-5.49-3.72-8.03-5.74
	c-6.28-4.99-12.9-10.2-23.46-9.26c-3.56,0.31-6.68,1.17-9.26,2.52L72.67,3.4c-0.1,0.06-0.19,0.1-0.27,0.15
	c-0.37,0.19-1.02,0.1-1.14,0.06c-0.13-0.08-0.27-0.16-0.4-0.23c-2.6-1.35-5.72-2.18-9.26-2.52c-10.65-0.92-17.21,4.29-23.49,9.28
	c-2.54,2.02-5.18,4.12-8.05,5.74c-5.24,2.97-10.19,4.6-13.96,4.6c-0.02,0.04-0.56-0.02-0.83-0.02c-2.5-0.19-4.35-1.12-5.32-2.7
	l-0.5-0.81c-0.91-1.16-2.31-1.85-3.81-1.85c-2.71,0-4.89,2.21-4.89,4.89c0,0.31,0.02,0.6,0.04,0.69c0,0.08,0.06,0.31,0.1,0.48l0,0
	c0.02,0.04,0.02,0.08,0.02,0.12c4.76,20.03,33.14,22.26,34.3,22.34c12.77,1.06,26.57-2.7,35.51-9.34c0.06-0.04,0.12-0.1,0.17-0.17
	l0,0c0.37-0.25,1.23-0.37,1.91,0.15c7.91,5.87,19.81,9.53,31.08,9.53c1.47,0,2.95-0.06,4.39-0.19c1.21-0.08,29.58-2.31,34.32-22.36
	c0.02-0.04,0.02-0.08,0.02-0.13c0.04-0.12,0.06-0.23,0.06-0.31c0.02-0.17,0.08-0.69,0.08-0.85
	C142.81,17.29,140.61,15.09,137.9,15.09 M107.89,38.1c-1.31,0.11-2.64,0.17-3.97,0.17c-9.86,0-20.18-3.04-27.54-8.22l0,0
	c-0.11-0.11-0.42-0.36-0.54-0.44c-2.37-1.66-5.43-1.85-8.34,0.19c-0.04,0.04-0.09,0.06-0.13,0.1c-6.99,5.16-17.6,8.36-27.69,8.36
	c-1.33,0-2.64-0.04-4.01-0.17c-0.23-0.02-22.16-1.75-28.27-14.98c1.93,1.64,4.51,2.62,7.51,2.85c4.91,0.31,11.32-1.56,17.91-5.29
	c3.25-1.83,6.03-4.08,8.76-6.24c5.99-4.76,11.07-8.78,19.54-8.07c2.83,0.25,5.24,0.9,6.97,1.77c0.11,0.06,0.19,0.12,0.31,0.17
	c0.1,0.06,0.19,0.1,0.25,0.14c1.94,1,4.33,0.98,6.2,0.06c0.08-0.04,0.29-0.15,0.44-0.23c0,0,0.02,0,0.02-0.02
	c1.93-1,4.35-1.64,7.18-1.89c8.4-0.73,13.54,3.31,19.53,8.07c2.71,2.16,5.51,4.39,8.76,6.24c6.59,3.72,12.98,5.6,17.91,5.29
	c2.99-0.23,5.57-1.21,7.51-2.83C130.04,36.33,108.13,38.08,107.89,38.1"/>
</svg>
