<?xml version="1.0" encoding="utf-8"?>
<!-- Generator: Adobe Illustrator 17.1.0, SVG Export Plug-In . SVG Version: 6.00 Build 0)  -->
<!DOCTYPE svg PUBLIC "-//W3C//DTD SVG 1.1//EN" "http://www.w3.org/Graphics/SVG/1.1/DTD/svg11.dtd">
<svg version="1.1" id="Layer_1" xmlns="http://www.w3.org/2000/svg" xmlns:xlink="http://www.w3.org/1999/xlink" x="0px" y="0px"
	 viewBox="0 0 68.1 68.1" enable-background="new 0 0 68.1 68.1" xml:space="preserve">
<path fill="#14DDB3" d="M64.2,0H3.9C1.8,0,0,1.8,0,3.9v60.3c0,2.1,1.8,3.9,3.9,3.9h60.3c2.1,0,3.9-1.8,3.9-3.9V3.9
	C68.1,1.8,66.3,0,64.2,0z M52.9,26.7c0,0.4,0,0.8,0,1.2c0,11.9-9.1,25.7-25.7,25.7c-5.1,0-9.9-1.5-13.9-4.1c0.7,0.1,1.4,0.1,2.2,0.1
	c4.2,0,8.1-1.4,11.2-3.9c-4-0.1-7.3-2.7-8.4-6.3c0.6,0.1,1.1,0.1,1.7,0.1c0.8,0,1.6-0.1,2.4-0.3c-4.1-0.8-7.2-4.5-7.2-8.9
	c0,0,0-0.1,0-0.1c1.2,0.7,2.6,1.1,4.1,1.1c-2.4-1.6-4-4.4-4-7.5c0-1.7,0.4-3.2,1.2-4.6c4.4,5.5,11.1,9.1,18.6,9.5
	c-0.1-0.7-0.2-1.4-0.2-2.1c0-5,4-9,9-9c2.6,0,5,1.1,6.6,2.9c2-0.4,4-1.1,5.7-2.2c-0.7,2.1-2.1,3.9-4,5c1.8-0.2,3.6-0.7,5.2-1.4
	C56.2,23.8,54.6,25.4,52.9,26.7z"/>
</svg>
