<?xml version="1.0" encoding="utf-8"?>
<!-- Generator: Adobe Illustrator 15.0.0, SVG Export Plug-In . SVG Version: 6.00 Build 0)  -->
<!DOCTYPE svg PUBLIC "-//W3C//DTD SVG 1.1//EN" "http://www.w3.org/Graphics/SVG/1.1/DTD/svg11.dtd">
<svg version="1.1" id="Layer_1" xmlns="http://www.w3.org/2000/svg" xmlns:xlink="http://www.w3.org/1999/xlink" x="0px" y="0px"
	 width="149.08px" height="54.24px" viewBox="0 0 149.08 54.24" enable-background="new 0 0 149.08 54.24" xml:space="preserve">
<path fill-rule="evenodd" clip-rule="evenodd" fill="#FFFFFF" d="M115.18,12.21l6.43,15.46l-11.78,17.98l9.29,6.46l8.56-11.16
	l6.07,12.24l11.39-4.69l-8.53-20.12l12.47-19.43l-9.98-6.46l-8.2,13.32l-4.66-9.35L115.18,12.21L115.18,12.21z M99.5,10.04
	l3.74-9.19l10.37,3.77l-3.77,9.39L99.5,10.04L99.5,10.04z M98.08,12.57L83.81,48.14l10.7,4.33l14.27-35.97L98.08,12.57L98.08,12.57z
	 M39.25,19.39l12.47,5.02l0.29,12.17l10.96-18.57l8.56,3.74l-1.12,7.58l9.48-13.52l11.06,4.66L68.12,53.55l-9.98-5.05l1.05-6.1
	l-8.53,11.84l-11.06-3.58L39.25,19.39L39.25,19.39z M3.58,8.96L64.91,0l-4.27,10.4l-27.47,5.05l4.27,2.13L23.56,54.24l-11.78-4.3
	L24.97,16.5L0,20.48L3.58,8.96L3.58,8.96z"/>
</svg>
